<svg viewBox="0 0 400 400" xmlns="http://www.w3.org/2000/svg" height="400" width="400" id="Aliens-Welcome--Streamline-Free-Illustrations.svg"><desc>Aliens Welcome Streamline Illustration: https://streamlinehq.com</desc><g id="Aliens-Welcome--Streamline-Free-Illustrations.svg"><path d="M39.6 213.424a160 160 0 1 0 320 0 160 160 0 1 0 -320 0Z" fill="#e8f4fa" stroke="#daedf7" stroke-width="4"></path><path d="M38.072 336.352a156.604 6.3 0 1 0 313.208 0 156.604 6.3 0 1 0 -313.208 0Z" fill="#45413c" opacity=".15" stroke-width="4"></path><path d="M229.096 307.2c-11.032 0 -24.556 38.4 -63.388 22.364 -18.424 -7.6 -54.072 15.344 -67.68 -6.8 -0.8 -1.304 -1.752 -2.98 -1.752 -2.98 29.536 2.8 21.924 -21.2 56.524 -13.776a12.332 12.332 0 0 0 10.4 -2.752 12.736 12.736 0 0 0 4.58 -9.716 13.644 13.644 0 0 0 -13.632 -13.7l-6.68 0a44.8 44.8 0 0 1 -44.756 -44.748 43.732 43.732 0 0 1 13.472 -31.492 13.028 13.028 0 0 0 3.572 -12.876c-1.452 -5.296 -1.176 -32.616 14.496 -32.616l5.564 20.964c4.228 15.452 9 35.524 -2.58 46.58a13.092 13.092 0 0 0 -4.04 9.432 14.272 14.272 0 0 0 14.256 14.256 20.376 20.376 0 0 0 20.376 -20.376l0 -86.504a61.276 61.276 0 0 1 122.548 0l0 86.512a20.4 20.4 0 0 0 20.38 20.376 14.272 14.272 0 0 0 14.252 -14.256 13.104 13.104 0 0 0 -4.036 -9.432c-11.6 -11.056 -6.8 -31.128 -2.58 -46.58l5.56 -20.964c15.672 0 15.948 27.32 14.5 32.616a13.02 13.02 0 0 0 3.572 12.876 43.732 43.732 0 0 1 13.472 31.484 44.8 44.8 0 0 1 -44.74 44.74l-6.68 0a13.636 13.636 0 0 0 -13.632 13.7 12.724 12.724 0 0 0 4.58 9.716 12.324 12.324 0 0 0 10.38 2.752c34.596 -7.416 26.996 16.564 56.524 13.776 0 0 -0.952 1.676 -1.752 2.98 -13.6 22.152 -49.256 -0.8 -67.68 6.8C253.664 345.6 240.14 307.2 229.112 307.2Z" fill="#00b8f0" stroke-width="4"></path><path d="M229.104 96.476a61.272 61.272 0 0 1 61.272 61.276l0 -15.292a61.276 61.276 0 1 0 -122.548 0l0 15.292a61.276 61.276 0 0 1 61.276 -61.276Z" fill="#4acfff" stroke-width="4"></path><path d="M229.096 307.2c-11.032 0 -24.556 38.4 -63.388 22.364 -18.424 -7.6 -54.072 15.344 -67.68 -6.8 -0.8 -1.304 -1.752 -2.98 -1.752 -2.98 20.624 14.308 35.224 -9.232 70.28 -2.352 49.78 9.772 30.64 -19.2 62.572 -10.224" fill="#b8ecff" stroke="#45413c" stroke-linecap="round" stroke-linejoin="round" stroke-width="4"></path><path d="M291.668 317.424c-49.78 9.772 -30.64 -19.2 -62.572 -10.224l0 0c11.028 0 24.552 38.4 63.384 22.364 18.424 -7.6 54.076 15.348 67.68 -6.8 0.8 -1.304 1.752 -2.98 1.752 -2.98 -20.688 14.524 -35.112 -9.256 -70.244 -2.36Z" fill="#b8ecff" stroke="#45413c" stroke-linecap="round" stroke-linejoin="round" stroke-width="4"></path><path d="M229.096 307.2c-11.032 0 -24.556 38.4 -63.388 22.364 -18.424 -7.6 -54.072 15.344 -67.68 -6.8 -0.8 -1.304 -1.752 -2.98 -1.752 -2.98 29.536 2.8 21.924 -21.2 56.524 -13.776a12.332 12.332 0 0 0 10.4 -2.752 12.736 12.736 0 0 0 4.58 -9.716 13.644 13.644 0 0 0 -13.632 -13.7l-6.68 0a44.8 44.8 0 0 1 -44.756 -44.748 43.732 43.732 0 0 1 13.472 -31.492 13.028 13.028 0 0 0 3.572 -12.876c-1.452 -5.296 -1.176 -32.616 14.496 -32.616l5.564 20.964c4.228 15.452 9 35.524 -2.58 46.58a13.092 13.092 0 0 0 -4.04 9.432 14.272 14.272 0 0 0 14.256 14.256 20.376 20.376 0 0 0 20.376 -20.376l0 -86.504a61.276 61.276 0 0 1 122.548 0l0 86.512a20.4 20.4 0 0 0 20.38 20.376 14.272 14.272 0 0 0 14.252 -14.256 13.104 13.104 0 0 0 -4.036 -9.432c-11.6 -11.056 -6.8 -31.128 -2.58 -46.58l5.56 -20.964c15.672 0 15.948 27.32 14.5 32.616a13.02 13.02 0 0 0 3.572 12.876 43.732 43.732 0 0 1 13.472 31.484 44.8 44.8 0 0 1 -44.74 44.74l-6.68 0a13.636 13.636 0 0 0 -13.632 13.7 12.724 12.724 0 0 0 4.58 9.716 12.324 12.324 0 0 0 10.38 2.752c34.596 -7.416 26.996 16.564 56.524 13.776 0 0 -0.952 1.676 -1.752 2.98 -13.6 22.152 -49.256 -0.8 -67.68 6.8C253.664 345.6 240.14 307.2 229.112 307.2Z" fill="none" stroke="#45413c" stroke-linecap="round" stroke-linejoin="round" stroke-width="4"></path><path d="M199.2 131.612a29.904 29.904 0 1 0 59.808 0 29.904 29.904 0 1 0 -59.808 0Z" fill="#f0f0f0" stroke-width="4"></path><path d="M216.7 131.612a12.404 12.404 0 1 0 24.808 0 12.404 12.404 0 1 0 -24.808 0Z" fill="#ff6242" stroke="#45413c" stroke-linecap="round" stroke-linejoin="round" stroke-width="4"></path><path d="M229.104 200.4a24.328 24.328 0 0 0 24.54 -20.464 2.16 2.16 0 0 0 -0.704 -1.892 2.424 2.424 0 0 0 -2.024 -0.592 138.08 138.08 0 0 1 -43.628 0 2.4 2.4 0 0 0 -2.02 0.592 2.164 2.164 0 0 0 -0.708 1.892 24.328 24.328 0 0 0 24.544 20.464Z" fill="#ffb0ca" stroke="#45413c" stroke-linecap="round" stroke-linejoin="round" stroke-width="4"></path><path d="M322.4 198.76a4.472 6.28 0 1 0 8.944 0 4.472 6.28 0 1 0 -8.944 0Z" fill="#80ddff" stroke="#45413c" stroke-linecap="round" stroke-linejoin="round" stroke-width="4"></path><path d="M334.3019680364 228.3687786256a6.28 4.472 73.891 1 0 8.592819044 -2.4816520464 6.28 4.472 73.891 1 0 -8.592819044 2.4816520464Z" fill="#80ddff" stroke="#45413c" stroke-linecap="round" stroke-linejoin="round" stroke-width="4"></path><path d="M324.4905888256 261.914562728a6.28 4.472 -43.413 1 0 9.1238195884 -8.6318894872 6.28 4.472 -43.413 1 0 -9.1238195884 8.6318894872Z" fill="#80ddff" stroke="#45413c" stroke-linecap="round" stroke-linejoin="round" stroke-width="4"></path><path d="M198.02 228.244a9.084 9.084 0 0 0 -17.696 -2.908c-2.352 5.7 -9.028 7.464 -11.88 -0.328a9.1 9.1 0 1 0 -8.488 12.344l4.44 13.96 0 20.988a11.16 11.16 0 0 1 -22.316 0 36.608 36.608 0 0 0 -36.604 -36.604l-15.292 0A36.608 36.608 0 0 0 53.6 272.304l0 29.12a15.828 15.828 0 0 0 15.408 15.82l0 31.008a9.016 9.016 0 0 0 -2.448 -0.372 9.164 9.164 0 1 0 9.104 9.76l0.12 0a9.14 9.14 0 1 0 14.084 -8.272l0 -22.756a7.512 7.512 0 1 1 15.024 0l0 21.896a9.152 9.152 0 1 0 12.428 8.532 9.164 9.164 0 1 0 9.368 -9.14l0 -75.6a26.568 26.568 0 1 0 53.132 0l0 -20.988a107.156 107.156 0 0 0 8.104 -14.06 8.752 8.752 0 0 0 10.112 -9.008Z" fill="#6dd627" stroke-width="4"></path><path d="M142.74 276.084a11.084 11.084 0 0 1 -0.66 -3.784 36.608 36.608 0 0 0 -36.604 -36.604l-15.292 0A36.608 36.608 0 0 0 53.6 272.304l0 13.6a36.604 36.604 0 0 1 36.596 -36.364l15.292 0a36.608 36.608 0 0 1 35.2 26.624Z" fill="#9ceb60" stroke-width="4"></path><path d="M198.02 228.244a9.084 9.084 0 0 0 -17.696 -2.908c-2.352 5.7 -9.028 7.464 -11.88 -0.328a9.1 9.1 0 1 0 -8.488 12.344l4.44 13.96 0 20.988a11.16 11.16 0 0 1 -22.316 0 36.608 36.608 0 0 0 -36.604 -36.604l-15.292 0A36.608 36.608 0 0 0 53.6 272.304l0 29.12a15.828 15.828 0 0 0 15.408 15.82l0 31.008a9.016 9.016 0 0 0 -2.448 -0.372 9.164 9.164 0 1 0 9.104 9.76l0.12 0a9.14 9.14 0 1 0 14.084 -8.272l0 -22.756a7.512 7.512 0 1 1 15.024 0l0 21.896a9.152 9.152 0 1 0 12.428 8.532 9.164 9.164 0 1 0 9.368 -9.14l0 -75.6a26.568 26.568 0 1 0 53.132 0l0 -20.988a107.156 107.156 0 0 0 8.104 -14.06 8.752 8.752 0 0 0 10.112 -9.008Z" fill="none" stroke="#45413c" stroke-linecap="round" stroke-linejoin="round" stroke-width="4"></path><path d="M147.176 183.152c0 25.476 -41.2 58.664 -49.348 58.664S48.48 208.628 48.48 183.152s22.096 -42.884 49.348 -42.884 49.348 17.404 49.348 42.884Z" fill="#6dd627" stroke-width="4"></path><path d="M105.808 219.68a11.288 11.288 0 0 1 -15.96 0" fill="none" stroke="#45413c" stroke-linecap="round" stroke-linejoin="round" stroke-width="4"></path><path d="m68.988 317.244 0 -51.776" fill="none" stroke="#45413c" stroke-linecap="round" stroke-linejoin="round" stroke-width="4"></path><path d="M146.352 189.696a27.908 27.908 0 0 0 0.824 -6.544c0 -25.48 -22.096 -42.884 -49.348 -42.884S48.48 157.672 48.48 183.152a27.64 27.64 0 0 0 0.828 6.536c4.164 -20.964 24.284 -34.748 48.52 -34.748s44.36 13.784 48.524 34.756Z" fill="#9ceb60" stroke-width="4"></path><path d="M147.176 183.152c0 25.476 -41.2 58.664 -49.348 58.664S48.48 208.628 48.48 183.152s22.096 -42.884 49.348 -42.884 49.348 17.404 49.348 42.884Z" fill="none" stroke="#45413c" stroke-linecap="round" stroke-linejoin="round" stroke-width="4"></path><path d="M111.53843874 200.8374814384a15.124 11.992 -62.368 1 0 14.0287475152 -26.7980549136 15.124 11.992 -62.368 1 0 -14.0287475148 26.7980549136Z" fill="#656769" stroke-width="4"></path><path d="M106.368 185.92a12.748 12.748 0 0 0 5.172 14.916c5.864 3.072 13.76 -0.436 17.636 -7.836a16.884 16.884 0 0 0 1.556 -12.324 18.436 18.436 0 0 1 -1.556 4.284c-3.872 7.396 -11.772 10.908 -17.64 7.836a10.62 10.62 0 0 1 -5.168 -6.876Z" fill="#525252" stroke-width="4"></path><path d="M111.53843874 200.8374814384a15.124 11.992 -62.368 1 0 14.0287475152 -26.7980549136 15.124 11.992 -62.368 1 0 -14.0287475148 26.7980549136Z" fill="none" stroke="#45413c" stroke-linecap="round" stroke-linejoin="round" stroke-width="4"></path><path d="M66.4715115476 193.0028287108a15.124 11.992 62.368 1 0 21.24849739 -11.12356124 15.124 11.992 62.368 1 0 -21.24849739 11.12356124Z" fill="#656769" stroke-width="4"></path><path d="M89.28 185.92a12.744 12.744 0 0 1 -5.168 14.916c-5.868 3.072 -13.764 -0.436 -17.636 -7.836a16.884 16.884 0 0 1 -1.56 -12.324 18.636 18.636 0 0 0 1.56 4.284c3.872 7.396 11.768 10.908 17.636 7.836a10.608 10.608 0 0 0 5.168 -6.876Z" fill="#525252" stroke-width="4"></path><path d="M66.4715115476 193.0028287108a15.124 11.992 62.368 1 0 21.24849739 -11.12356124 15.124 11.992 62.368 1 0 -21.24849739 11.12356124Z" fill="none" stroke="#45413c" stroke-linecap="round" stroke-linejoin="round" stroke-width="4"></path><path d="M170.216 77.668c0 4.088 -11.3 6.632 -12.308 10.4 -1.04 3.896 7.44 11.744 5.464 15.156s-13.056 0.024 -15.864 2.832 0.628 13.864 -2.832 15.864 -11.26 -6.504 -15.156 -5.464c-3.768 1.008 -6.312 12.308 -10.4 12.308s-6.632 -11.3 -10.4 -12.308c-3.896 -1.044 -11.744 7.44 -15.156 5.464s-0.024 -13.056 -2.832 -15.864 -13.864 0.628 -15.864 -2.832 6.508 -11.26 5.464 -15.156c-1.008 -3.768 -12.304 -6.312 -12.304 -10.4s11.3 -6.628 12.304 -10.4c1.044 -3.896 -7.44 -11.744 -5.464 -15.156s13.056 -0.024 15.864 -2.832 -0.628 -13.864 2.832 -15.868 11.26 6.508 15.156 5.468c3.768 -1.008 6.316 -12.308 10.4 -12.308s6.628 11.3 10.4 12.308c3.9 1.04 11.744 -7.44 15.16 -5.464s0 13.056 2.828 15.864 13.864 -0.628 15.868 2.832 -6.508 11.26 -5.468 15.156c1.008 3.772 12.308 6.332 12.308 10.4Z" fill="#ffe500" stroke-width="4"></path><path d="M94.664 70.34a5.664 5.664 0 1 0 11.328 0 5.664 5.664 0 1 0 -11.328 0Z" fill="#45413c" stroke-width="4"></path><path d="M132.252 70.34a5.664 5.664 0 1 0 11.328 0 5.664 5.664 0 1 0 -11.328 0Z" fill="#45413c" stroke-width="4"></path><path d="M79.24 92.42c-2 3.856 -5.752 8.4 -4.368 10.8 2 3.46 13.056 0 15.864 2.832s-0.632 13.86 2.832 15.864 11.26 -6.508 15.156 -5.464c3.768 1.008 6.316 12.308 10.4 12.308s6.628 -11.3 10.4 -12.308c3.896 -1.04 11.744 7.44 15.156 5.464s0.024 -13.056 2.832 -15.864 13.864 0.632 15.864 -2.832c1.384 -2.4 -2.352 -6.944 -4.368 -10.8a57.864 57.864 0 0 1 -79.764 0Z" fill="#ebcb00" stroke-width="4"></path><path d="M170.216 77.668c0 4.088 -11.3 6.632 -12.308 10.4 -1.04 3.896 7.44 11.744 5.464 15.156s-13.056 0.024 -15.864 2.832 0.628 13.864 -2.832 15.864 -11.26 -6.504 -15.156 -5.464c-3.768 1.008 -6.312 12.308 -10.4 12.308s-6.632 -11.3 -10.4 -12.308c-3.896 -1.044 -11.744 7.44 -15.156 5.464s-0.024 -13.056 -2.832 -15.864 -13.864 0.628 -15.864 -2.832 6.508 -11.26 5.464 -15.156c-1.008 -3.768 -12.304 -6.312 -12.304 -10.4s11.3 -6.628 12.304 -10.4c1.044 -3.896 -7.44 -11.744 -5.464 -15.156s13.056 -0.024 15.864 -2.832 -0.628 -13.864 2.832 -15.868 11.26 6.508 15.156 5.468c3.768 -1.008 6.316 -12.308 10.4 -12.308s6.628 11.3 10.4 12.308c3.9 1.04 11.744 -7.44 15.16 -5.464s0 13.056 2.828 15.864 13.864 -0.628 15.868 2.832 -6.508 11.26 -5.468 15.156c1.008 3.772 12.308 6.332 12.308 10.4Z" fill="none" stroke="#45413c" stroke-linecap="round" stroke-linejoin="round" stroke-width="4"></path><path d="M119.124 95.904a11.92 11.92 0 0 0 12.024 -10.028 1.056 1.056 0 0 0 -0.348 -0.924 1.2 1.2 0 0 0 -0.992 -0.292 67.44 67.44 0 0 1 -21.372 0 1.2 1.2 0 0 0 -0.992 0.292 1.056 1.056 0 0 0 -0.344 0.924 11.92 11.92 0 0 0 12.024 10.028Z" fill="#ffb0ca" stroke="#45413c" stroke-linecap="round" stroke-linejoin="round" stroke-width="4"></path><path d="M258.636 136.328a29.904 29.904 0 1 0 -59.068 0 29.864 29.864 0 0 1 59.068 0Z" fill="#ffffff" stroke-width="4"></path><path d="M199.2 131.612a29.904 29.904 0 1 0 59.808 0 29.904 29.904 0 1 0 -59.808 0Z" fill="none" stroke="#45413c" stroke-linecap="round" stroke-linejoin="round" stroke-width="4"></path></g></svg>